HIERARCHY
ROOT hip
{
  OFFSET 0.0 0.0 0.0
  CHANNELS 6 Xposition Yposition Zposition Zrotation Yrotation Xrotation
  JOINT torso
  {
    OFFSET 0.0 0.0 0.0
    CHANNELS 3 Zrotation Xrotation Yrotation
    JOINT neck
    {
      OFFSET -31.42098999999993 328.8025209999999 74.3554680000002
      CHANNELS 3 Zrotation Xrotation Yrotation
      JOINT head
      {
        OFFSET 3.3519900000001144 303.81732099999994 206.53942900000015
        CHANNELS 3 Zrotation Xrotation Yrotation
        End Site
        {
          OFFSET 0.0 0.0 0.0
        }
      }
    }
    JOINT left_collar
    {
      OFFSET -31.42098999999993 328.8025209999999 74.3554680000002
      CHANNELS 3 Zrotation Xrotation Yrotation
      JOINT left_upper_arm
      {
        OFFSET -124.490479 -8.162841999999841 8.226441000000023
        CHANNELS 3 Zrotation Xrotation Yrotation
        JOINT left_forearm
        {
          OFFSET -253.595764 -1.5758060000000569 105.0729980000001
          CHANNELS 3 Zrotation Xrotation Yrotation
          JOINT left_hand
          {
            OFFSET -269.48803699999996 0.1478270000000066 -55.346191999999974
            CHANNELS 3 Zrotation Xrotation Yrotation
            End Site
            {
              OFFSET 0.0 0.0 0.0
            }
          }
        }
      }
    }
    JOINT right_collar
    {
      OFFSET -31.42098999999993 328.8025209999999 74.3554680000002
      CHANNELS 3 Zrotation Xrotation Yrotation
      JOINT right_upper_arm
      {
        OFFSET 162.02484099999998 0.46441600000002836 2.2303470000001653
        CHANNELS 3 Zrotation Xrotation Yrotation
        JOINT right_forearm
        {
          OFFSET 240.01246700000004 -25.835875999999985 121.34179699999959
          CHANNELS 3 Zrotation Xrotation Yrotation
          JOINT right_hand
          {
            OFFSET 252.48539699999992 18.910399999999868 -67.53466800000001
            CHANNELS 3 Zrotation Xrotation Yrotation
            End Site
            {
              OFFSET 0.0 0.0 0.0
            }
          }
        }
      }
    }
  }
}
MOTION
Frames: 6
Frame Time: 0.01
-527.4275528308415 275.0207911704774 627.6861626670157 1.2199478548069227 -1.5628657200698295 43.973852344966836 -0.2936576438851377 3.0394127801356046 0.35115700386301935 2.2844411522031334 -12.259124178693508 -1.5492446222405112 0.0 0.0 0.0 0.4606189653947752 0.14089068345645603 -1.5847111017775604 47.25735987627194 7.654733134980166 27.31448306390938 41.922369578387915 -5.489823288682895 -8.953771954370904 0.0 0.0 0.0 -0.7197756671250484 0.02441126831938935 4.2414457252076145 -40.130589220772045 25.98762105691902 7.185673973750969 -0.7228772522637903 -0.8812166572520658 10.317376432378596 0.0 0.0 0.0
-527.4578814217715 275.0391420821813 627.7428317653341 1.2233727430632588 -1.5506261340530898 43.98157591443659 -0.2937868557501528 3.033960960313156 0.35066881281676876 2.2821513824268242 -12.253957777942084 -1.547566488252553 0.0 0.0 0.0 0.4574891838216466 0.14073361909064483 -1.5860531131060902 47.274588882642234 7.654866337828823 27.32124866225117 41.9043436332488 -5.488290905786462 -8.951072347908845 0.0 0.0 0.0 -0.7207813477469217 0.024456669721979744 4.239782597719464 -40.11738055992187 25.987208949054963 7.199999064160089 -0.7223906240215099 -0.8805313409180805 10.30818914337484 0.0 0.0 0.0
-527.4856894376727 275.05815040137605 627.7976399496301 1.2271111209392915 -1.5391967732875929 43.98843931533383 -0.29402680382282803 3.029518765543194 0.350298055695086 2.2797037425983597 -12.248869233760828 -1.5457726363699036 0.0 0.0 0.0 0.45489953783724146 0.14061831065308827 -1.5873744488164923 47.28974104617523 7.6547493233018 27.327711959122194 41.888306362625336 -5.486928222820977 -8.948667450364123 0.0 0.0 0.0 -0.7218412889904431 0.02450586041641325 4.238428118139838 -40.10493796624995 25.98763425366783 7.214842989995941 -0.7218007364698483 -0.8798015010132357 10.29859542671687 0.0 0.0 0.0
-527.5110579567549 275.07772131490213 627.8508020912085 1.2311453348165982 -1.5286412076234437 43.99444324175826 -0.29436423813191437 3.026126333911006 0.35004586002877386 2.2771329063102845 -12.243869963306881 -1.5438885021056625 0.0 0.0 0.0 0.45291521693843717 0.1405476186478377 -1.5886409266460502 47.302383942990595 7.654373597922369 27.3337157179405 41.87478616993172 -5.485754711403463 -8.946702754636643 0.0 0.0 0.0 -0.7229430780048214 0.024558436680279044 4.237446027163362 -40.093329430626596 25.988885276093015 7.230108803016077 -0.7209407374630153 -0.8789989918854966 10.288605892063616 0.0 0.0 0.0
-527.534100034149 275.0977543254952 627.9025549995305 1.2354478280707648 -1.519007697151098 43.999603765501654 -0.2947806907108746 3.02380780149462 0.3499107916542529 2.2744759165563284 -12.238969290983054 -1.541941255786026 0.0 0.0 0.0 0.45158125077304995 0.14052365520311727 -1.5898307494999722 47.3121640516828 7.653730739737986 27.339135082729918 41.86422991178193 -5.484783122399343 -8.945311110617093 0.0 0.0 0.0 -0.7240704174465296 0.024613777026475034 4.236893068328696 -40.08260514203421 25.99093800501849 7.245699260624743 -0.7196530519430289 -0.878097592277769 10.278237051765222 0.0 0.0 0.0
-527.5549555832505 275.11814261685885 627.9531539213832 1.2399819369299416 -1.510329779236366 44.00395188608161 -0.2952531624655495 3.0225711539131512 0.3498889796905747 2.271771768902726 -12.234173400578294 -1.5399594971501382 0.0 0.0 0.0 0.45092123257268407 0.14054768068549822 -1.590934541333512 47.31881961509153 7.652813914592428 27.343879317821802 41.8569863202137 -5.4840189602384015 -8.944607803134797 0.0 0.0 0.0 -0.7252030216926393 0.02467102904971865 4.236816884013519 -40.07279655737821 25.993756484665113 7.26151853391568 -0.7177927055685777 -0.8770737943486969 10.267514605523017 0.0 0.0 0.0
